<?xml version="1.0" encoding="UTF-8" standalone="no"?>
<svg width="196px" height="45px" viewBox="0 0 196 45" version="1.1" xmlns="http://www.w3.org/2000/svg" xmlns:xlink="http://www.w3.org/1999/xlink">
    <!-- Generator: Sketch 46.2 (44496) - http://www.bohemiancoding.com/sketch -->
    <title>gotrack</title>
    <desc>Created with Sketch.</desc>
    <defs></defs>
    <g id="GoTrack" stroke="none" stroke-width="1" fill="none" fill-rule="evenodd" opacity="0.534223414">
        <g id="gotrack" transform="translate(-1.000000, 0.000000)">
            <path d="M37,27 C37,27 7.2,29 1.5,18.7 C-0.9,12.7 4.5,6.9 27.9,2.2 C27.9,2.2 12.3,5.2 10.2,11.2 C9.7,13.7 10.3,20.8 39.3,20.2 L37,27 Z" id="Shape" fill="#FFFFFF" fill-rule="nonzero"></path>
            <path d="M41.2,17.6 C41.2,17.6 23,18.8 19.6,12.6 C18.2,8.9 21.5,5.4 35.7,2.6 C35.7,2.6 26.2,4.5 24.9,8.1 C24.6,9.6 25,14 42.6,13.6 L41.2,17.6 Z" id="Shape" fill="#FFFFFF" fill-rule="nonzero"></path>
            <path d="M51.1,12.7 C53.1,12.7 55,12.7 56.8,12.7 C59.9,12.7 62.3,12.7 64,12.7 C63.8,14.7 63.6,17.5 63.4,21.2 C63.2,24.8 63.1,27.6 63,29.5 C61.3,29.8 60,30 58.9,30.2 C57.8,30.3 56.5,30.5 55,30.6 C53.5,30.7 52.1,30.8 50.9,30.8 C48.9,30.8 47,30.6 45.1,30.3 C43.2,30 41.5,29.5 40,28.8 C38.5,28.1 37.2,27.1 36.2,25.9 C35.2,24.7 34.4,23.2 33.9,21.6 C33.4,19.9 33.1,18.2 33.1,16.4 C33.1,13.5 33.8,10.7 35.3,8.2 C36.8,5.7 38.9,3.7 41.6,2.2 C44.3,0.7 47.9,7.10542736e-15 52.2,7.10542736e-15 C55.4,7.10542736e-15 58.9,0.4 62.7,1.2 C62.7,3.3 62.8,5.6 63,8.2 C62,7.9 61.1,7.6 60.5,7.4 C59.9,7.2 59.1,7.1 58.2,6.9 C57.3,6.7 56.5,6.6 55.7,6.6 C54.9,6.5 54.2,6.5 53.6,6.5 C52,6.5 50.5,6.7 49.1,7.2 C47.7,7.7 46.5,8.4 45.4,9.3 C44.4,10.3 43.6,11.4 43.1,12.7 C42.6,14 42.3,15.4 42.3,16.9 C42.3,18.4 42.6,19.7 43.2,20.9 C43.8,22.1 44.7,23 46,23.6 C47.3,24.2 48.7,24.5 50.2,24.5 C51.5,24.5 52.9,24.3 54.4,23.9 L54.6,19.2 C53.7,19.2 53.1,19.1 52.9,19.1 L50.6,19.1 L50.8,16.4 C50.8,16.1 50.8,15.7 50.9,15.2 C51.1,14.4 51.1,13.7 51.1,12.7 Z" id="Shape" fill="#FFFFFF" fill-rule="nonzero"></path>
            <path d="M91.9934628,23.2360777 L96.1,25.7 L92.0098788,23.0130591 C92.2019061,20.3895758 92.3616231,17.6849588 92.4805011,14.8906793 L101.520822,13.2680576 C101.513474,13.4125011 101.506524,13.5564634 101.5,13.7 C101.3,16.8 101.2,19.8 101.1,22.8 C101,25.7 101,28.1 101,29.9 C98.6,29.9 97.1,29.9 96.4,29.9 C95.8,30 94.1,30 91.4,30.1 C91.6195528,27.8731075 91.8194307,25.5871904 91.9934628,23.2360777 Z M92.4998203,14.4269365 C92.6005514,11.956521 92.6692217,9.41615256 92.7,6.8 L83.4,7 L83.5,4.6 C83.6,3.3 83.6,1.9 83.6,0.3 C87.7,0.3 92.5,0.3 98,0.3 L103.4,0.3 L108.6,0.3 L111.4,0.3 L111.3,2.4 C111.2,3.5 111.2,4.5 111.2,5.2 C111.2,5.9 111.2,6.5 111.2,6.9 C108.1,6.7 105.5,6.6 103.5,6.6 L102,6.6 C101.819681,8.94414495 101.639362,11.0444283 101.532332,13.0474261 L92.4998203,14.4269365 Z" id="Combined-Shape" fill="#FFFFFF" fill-rule="nonzero"></path>
            <path d="M110.2,30.1 L110.9,20.4 L111.1,14.9 C111.1,13.9 111.1,12.9 111.1,11.8 C111.1,10.7 111.1,9.4 111.1,7.9 C112.8,7.9 114.2,7.9 115.3,7.9 C116.5,7.9 117.9,7.9 119.4,7.9 L119.3,10.4 C119.9,9.8 120.3,9.3 120.7,9 C121.1,8.7 121.5,8.4 121.9,8.2 C122.4,7.9 122.9,7.8 123.4,7.6 C123.9,7.5 124.4,7.4 125,7.4 C125.5,7.4 126.1,7.5 126.7,7.6 C126.7,9.2 126.7,10.5 126.8,11.5 L126.9,14.9 C126.1,14.7 125.4,14.5 124.7,14.5 C123.8,14.5 123.1,14.6 122.4,14.9 C121.8,15.2 121.2,15.5 120.7,16.1 C120.2,16.6 119.8,17.3 119.5,18 C119.2,18.8 119,20 118.9,21.7 C118.8,23.4 118.7,25.3 118.7,27.4 C118.7,28.2 118.7,29.1 118.8,30.2 C117.4,30.2 116,30.2 114.6,30.2 C113.3,30 111.8,30 110.2,30.1 Z" id="Shape" fill="#FFFFFF" fill-rule="nonzero"></path>
            <path d="M128.7,14.2 C129,12.8 129.1,11.8 129.2,11.2 C129.3,10.7 129.4,9.8 129.5,8.7 C133.7,7.8 137.3,7.3 140.3,7.3 C142,7.3 143.6,7.5 145,7.9 C146.4,8.3 147.5,8.9 148.3,9.8 C149.1,10.7 149.5,11.9 149.5,13.5 C149.5,14.3 149.4,16.1 149.2,19 C149,21.8 148.8,25.6 148.7,30.2 C147.3,30.2 145.9,30.2 144.5,30.2 C143.1,30.2 141.7,30.2 140.2,30.2 C140.4,28.6 140.6,25.3 140.8,20.3 C140.3,20.6 139.8,20.8 139.5,20.9 C139.2,21 138.7,21.2 137.9,21.4 C137.1,21.6 136.5,21.8 136.1,22 C135.7,22.2 135.3,22.4 135,22.6 C134.7,22.8 134.4,23.1 134.3,23.4 C134.2,23.7 134.1,24 134.1,24.3 C134.1,24.8 134.3,25.2 134.7,25.6 C135.1,26 135.7,26.1 136.6,26.1 C136.9,26.1 137.2,26.1 137.6,26 C137.9,25.9 138.4,25.8 139,25.6 C138.6,26.7 138.1,28.3 137.5,30.4 C136.3,30.6 135.1,30.7 134,30.7 C132.2,30.7 130.7,30.5 129.5,30 C128.3,29.5 127.4,28.7 126.7,27.6 C126.1,26.5 125.7,25.4 125.7,24.2 C125.7,23.5 125.8,22.9 126.1,22.2 C126.3,21.5 126.7,20.9 127.2,20.3 C127.7,19.7 128.3,19.1 129,18.7 C129.7,18.3 130.6,17.8 131.8,17.4 C133,17 134.5,16.6 136.3,16.3 C137.1,16.2 137.7,16 138.4,15.8 C139,15.6 139.5,15.5 139.7,15.4 C140,15.3 140.2,15.1 140.3,15 C140.5,14.8 140.6,14.7 140.7,14.5 C140.8,14.3 140.8,14.1 140.8,13.9 C140.8,13.4 140.6,12.9 140.1,12.6 C139.6,12.3 139,12.2 138.1,12.2 C135.4,12.1 132.4,12.8 128.7,14.2 Z" id="Shape" fill="#FFFFFF" fill-rule="nonzero"></path>
            <path d="M169.5,23.1 C169.4,23.7 169.3,24.7 169,26.3 L168.4,29.8 C166.1,30.3 163.9,30.6 161.7,30.6 C160.1,30.6 158.7,30.4 157.5,30.1 C156.1,29.7 154.8,29.1 153.7,28.1 C152.6,27.1 151.7,25.9 151.2,24.6 C150.6,23 150.3,21.3 150.3,19.3 C150.3,17.5 150.6,15.8 151.2,14.1 C151.8,12.4 152.7,11.1 153.9,10 C155.1,8.9 156.4,8.2 157.8,7.8 C159.2,7.4 160.8,7.2 162.6,7.2 C163.6,7.2 164.7,7.3 165.7,7.4 C166.7,7.5 168,7.7 169.6,8.1 L169.6,8.6 C169.6,9.1 169.7,9.6 169.7,10.2 C169.7,10.7 169.8,11.6 169.8,12.8 L169.9,14.7 C167.8,14 166,13.6 164.4,13.6 C163.3,13.6 162.3,13.8 161.4,14.3 C160.5,14.7 159.9,15.4 159.5,16.2 C159.1,17 158.9,18 158.9,19.1 C158.9,20.2 159.1,21.2 159.5,21.9 C159.9,22.7 160.5,23.2 161.3,23.6 C162.1,24 163,24.2 164,24.2 C164.5,24.2 165.1,24.1 165.7,24 C166.4,23.9 167,23.8 167.5,23.7 C168.1,23.6 168.7,23.4 169.5,23.1 Z" id="Shape" fill="#FFFFFF" fill-rule="nonzero"></path>
            <path d="M170.7,30.1 C170.9,28.2 171.1,26.7 171.1,25.6 C171.2,24 171.3,22 171.5,19.7 L171.7,14.5 C171.8,12.2 171.9,9.9 171.9,7.8 C172,5.2 172,2.8 172,0.4 C174,0.4 175.5,0.4 176.6,0.4 C177.8,0.4 179.2,0.4 180.8,0.4 C180.5,4.2 180.1,8.9 179.9,14.6 C179.6,20.2 179.5,25.4 179.5,30.1 C177.8,30.1 176.4,30.1 175.2,30.1 C173.8,30 172.3,30 170.7,30.1 Z M180.3,17.6 L184,12.2 L186.8,7.9 C188.8,7.9 190.3,7.9 191.3,7.9 C192.7,7.9 194.4,7.9 196.3,7.9 L192,13.5 C191,14.8 190,16.2 188.9,17.7 C189.9,19.6 192.4,23.7 196.2,30.1 C194.5,30.1 193,30.1 191.6,30.1 C190.2,30.1 188.6,30.1 186.8,30.1 L185.5,27.4 C185,26.5 184.6,25.7 184.3,25 C184.2,24.7 183.2,23 181.3,19.7 L180.3,17.6 Z" id="Shape" fill="#FFFFFF" fill-rule="nonzero"></path>
            <circle id="Oval" cx="77.4" cy="18" r="12.2"></circle>
            <g id="Group" transform="translate(91.000000, 35.000000)" fill-rule="nonzero" fill="#FFFFFF">
                <path d="M4,0.9 C4.6,0.9 5.1,1 5.6,1.3 C6.1,1.6 6.5,2 6.7,2.5 C7,3 7.1,3.6 7.1,4.3 C7.1,5 7,5.5 6.7,6.1 C6.4,6.7 6,7 5.6,7.3 C5.1,7.6 4.6,7.8 4,7.8 C3.4,7.8 2.9,7.7 2.4,7.4 C1.9,7.1 1.5,6.7 1.3,6.2 C1,5.7 0.9,5.1 0.9,4.4 C0.9,3.7 1,3.2 1.3,2.6 C1.6,2.1 2,1.7 2.4,1.4 C2.8,1.1 3.4,0.9 4,0.9 Z M1.8,4.4 C1.8,4.9 1.9,5.4 2.1,5.8 C2.3,6.2 2.5,6.5 2.9,6.7 C3.2,6.9 3.6,7 4,7 C4.4,7 4.8,6.9 5.1,6.7 C5.4,6.5 5.7,6.1 5.9,5.7 C6.1,5.3 6.2,4.8 6.2,4.3 C6.2,3.8 6.1,3.3 5.9,2.9 C5.7,2.5 5.5,2.2 5.1,2 C4.7,1.8 4.4,1.7 4,1.7 C3.6,1.7 3.2,1.8 2.9,2 C2.6,2.2 2.3,2.5 2.1,3 C1.9,3.4 1.8,3.9 1.8,4.4 Z" id="Shape"></path>
                <path d="M9.5,4.3 L9.5,7.6 L8.6,7.6 L8.6,2.9 L9.3,2.9 L9.5,3.5 C9.8,3.3 10,3.1 10.4,2.9 C10.7,2.8 11,2.7 11.3,2.7 C11.8,2.7 12.2,2.9 12.4,3.2 C12.7,3.5 12.8,3.9 12.8,4.5 L12.8,7.6 L11.9,7.6 L11.9,4.6 C11.9,4.3 11.8,4 11.7,3.8 C11.6,3.6 11.4,3.5 11.1,3.5 C10.9,3.5 10.6,3.6 10.4,3.7 C10,3.9 9.7,4.1 9.5,4.3 Z" id="Shape"></path>
                <polygon id="Shape" points="15.2 0.8 15.2 7.7 14.3 7.7 14.3 0.9"></polygon>
                <path d="M17.4,2.1 C17.2,2.1 17.1,2 17,1.9 C16.9,1.8 16.8,1.6 16.8,1.5 C16.8,1.3 16.9,1.2 17,1.1 C17.1,1 17.2,0.9 17.4,0.9 C17.6,0.9 17.7,1 17.8,1.1 C17.9,1.2 18,1.4 18,1.5 C18,1.7 17.9,1.8 17.8,1.9 C17.7,2 17.5,2.1 17.4,2.1 Z M17.8,2.9 L17.8,7.6 L16.9,7.6 L16.9,2.9 L17.8,2.9 Z" id="Shape"></path>
                <path d="M20.4,4.3 L20.4,7.6 L19.5,7.6 L19.5,2.9 L20.2,2.9 L20.4,3.5 C20.7,3.3 20.9,3.1 21.3,2.9 C21.6,2.8 21.9,2.7 22.2,2.7 C22.7,2.7 23.1,2.9 23.3,3.2 C23.5,3.5 23.7,3.9 23.7,4.5 L23.7,7.6 L22.8,7.6 L22.8,4.6 C22.8,4.3 22.7,4 22.6,3.8 C22.5,3.6 22.3,3.5 22,3.5 C21.8,3.5 21.5,3.6 21.3,3.7 C20.9,3.9 20.6,4.1 20.4,4.3 Z" id="Shape"></path>
                <path d="M29.1,5.3 L29.1,5.6 L25.7,5.6 C25.7,6.1 25.9,6.4 26.1,6.7 C26.4,7 26.7,7.1 27.2,7.1 C27.4,7.1 27.7,7.1 27.8,7 C28,6.9 28.2,6.8 28.6,6.7 L28.9,7.4 C28.3,7.7 27.8,7.9 27.2,7.9 C26.4,7.9 25.7,7.7 25.3,7.2 C24.9,6.7 24.6,6.1 24.6,5.4 C24.6,4.9 24.7,4.5 24.9,4.1 C25.1,3.7 25.3,3.4 25.7,3.2 C26,3 26.4,2.9 26.9,2.9 C27.6,2.9 28.1,3.1 28.4,3.6 C29,4 29.1,4.5 29.1,5.3 Z M25.8,4.9 L28.2,4.9 C28.1,4.1 27.7,3.6 27,3.6 C26.6,3.6 26.4,3.7 26.1,3.9 C26,4.2 25.8,4.5 25.8,4.9 Z" id="Shape"></path>
                <polygon id="Shape" points="32.6 1.1 33.5 1 35.6 6.5 37.6 1.1 38.5 1.1 36 7.7 35.2 7.7"></polygon>
                <path d="M43.6,5.3 L43.6,5.6 L40.2,5.6 C40.2,6.1 40.4,6.4 40.6,6.7 C40.9,7 41.2,7.1 41.7,7.1 C41.9,7.1 42.2,7.1 42.3,7 C42.5,6.9 42.7,6.8 43.1,6.7 L43.4,7.4 C42.8,7.7 42.3,7.9 41.7,7.9 C40.9,7.9 40.2,7.7 39.8,7.2 C39.4,6.8 39.1,6.1 39.1,5.4 C39.1,4.9 39.2,4.5 39.4,4.1 C39.6,3.7 39.8,3.4 40.2,3.2 C40.5,3 40.9,2.9 41.4,2.9 C42.1,2.9 42.6,3.1 42.9,3.6 C43.4,4 43.6,4.5 43.6,5.3 Z M40.3,4.9 L42.7,4.9 C42.6,4.1 42.2,3.6 41.5,3.6 C41.1,3.6 40.9,3.7 40.6,3.9 C40.4,4.2 40.3,4.5 40.3,4.9 Z" id="Shape"></path>
                <path d="M48.8,3.3 C49,3.6 49.2,4 49.2,4.6 L49.2,7.7 L48.3,7.7 L48.3,4.7 C48.3,4.4 48.2,4.1 48.1,3.9 C48,3.7 47.8,3.6 47.5,3.6 C47.3,3.6 47,3.7 46.8,3.8 C46.5,3.9 46.3,4.1 46,4.3 L46,7.6 L45,7.6 L45,0.8 L45.9,0.7 L45.9,3.4 C46.1,3.2 46.4,3 46.7,2.9 C47,2.8 47.3,2.7 47.6,2.7 C48.1,2.8 48.5,2.9 48.8,3.3 Z" id="Shape"></path>
                <path d="M51.1,2.1 C50.9,2.1 50.8,2 50.7,1.9 C50.6,1.8 50.5,1.6 50.5,1.5 C50.5,1.3 50.6,1.2 50.7,1.1 C50.8,1 50.9,0.9 51.1,0.9 C51.3,0.9 51.4,1 51.5,1.1 C51.6,1.2 51.7,1.4 51.7,1.5 C51.7,1.7 51.6,1.8 51.5,1.9 C51.4,2 51.3,2.1 51.1,2.1 Z M51.6,2.9 L51.6,7.6 L50.7,7.6 L50.7,2.9 L51.6,2.9 Z" id="Shape"></path>
                <path d="M56.6,6.7 L56.9,7.4 C56.7,7.5 56.4,7.6 56.1,7.7 C55.8,7.8 55.5,7.8 55.3,7.8 C54.8,7.8 54.4,7.7 54.1,7.5 C53.8,7.3 53.5,7 53.3,6.6 C53.1,6.2 53,5.8 53,5.3 C53,4.8 53.1,4.4 53.3,4 C53.5,3.6 53.8,3.3 54.1,3.1 C54.5,2.9 54.9,2.8 55.4,2.8 C55.6,2.8 55.9,2.8 56.2,2.9 C56.5,3 56.8,3.1 57,3.2 L56.7,3.9 C56.4,3.8 56.2,3.7 56,3.7 C55.8,3.7 55.6,3.6 55.4,3.6 C55,3.6 54.6,3.8 54.4,4.1 C54.1,4.4 54,4.8 54,5.3 C54,5.8 54.1,6.2 54.4,6.5 C54.6,6.8 55,7 55.4,7 C55.7,7 55.9,7 56.1,6.9 C56.1,6.9 56.3,6.8 56.6,6.7 Z" id="Shape"></path>
                <polygon id="Shape" points="59.1 0.8 59.1 7.7 58.2 7.7 58.2 0.9"></polygon>
                <path d="M64.9,5.3 L64.9,5.6 L61.5,5.6 C61.5,6.1 61.7,6.4 61.9,6.7 C62.2,7 62.5,7.1 63,7.1 C63.2,7.1 63.5,7.1 63.6,7 C63.8,6.9 64,6.8 64.4,6.7 L64.7,7.4 C64.1,7.7 63.6,7.9 63,7.9 C62.2,7.9 61.5,7.7 61.1,7.2 C60.7,6.8 60.4,6.1 60.4,5.4 C60.4,4.9 60.5,4.5 60.7,4.1 C60.9,3.7 61.1,3.4 61.5,3.2 C61.8,3 62.2,2.9 62.7,2.9 C63.4,2.9 63.9,3.1 64.2,3.6 C64.7,4 64.9,4.5 64.9,5.3 Z M61.5,4.9 L63.9,4.9 C63.8,4.1 63.4,3.6 62.7,3.6 C62.3,3.6 62.1,3.7 61.8,3.9 C61.7,4.2 61.6,4.5 61.5,4.9 Z" id="Shape"></path>
                <polygon id="Shape" points="68.3 1 73.6 1 73.7 1.7 71.4 1.7 71.4 7.6 70.5 7.6 70.5 1.7 68.3 1.7"></polygon>
                <path d="M75.7,4.5 L75.7,7.6 L74.8,7.6 L74.8,2.9 L75.3,2.9 L75.6,3.7 C75.8,3.5 76.1,3.3 76.4,3.2 C76.7,3 77,3 77.2,3 L77.4,3.8 C77.2,3.8 76.9,3.9 76.6,4 C76.3,4.1 75.9,4.3 75.7,4.5 Z" id="Shape"></path>
                <path d="M78.9,4 L78.6,3.3 C78.8,3.2 79,3.1 79.4,3 C79.7,2.9 80,2.9 80.2,2.9 C80.6,2.9 80.9,3 81.2,3.1 C81.5,3.2 81.7,3.4 81.9,3.7 C82.1,4 82.1,4.2 82.1,4.5 L82.1,7.7 L81.4,7.7 L81.3,7.3 C81.1,7.5 80.9,7.6 80.7,7.7 C80.4,7.8 80.2,7.9 80,7.9 C79.5,7.9 79,7.8 78.8,7.5 C78.5,7.2 78.4,6.9 78.4,6.4 C78.4,5.9 78.6,5.6 78.9,5.3 C79.2,5 79.6,4.9 80.2,4.9 L81.3,4.9 C81.3,4.5 81.2,4.2 81.1,4 C81,3.8 80.7,3.7 80.4,3.7 C79.8,3.7 79.4,3.8 78.9,4 Z M79.2,6.3 C79.2,6.5 79.3,6.7 79.4,6.8 C79.5,6.9 79.7,7 80,7 C80.2,7 80.4,6.9 80.7,6.8 C80.9,6.7 81.1,6.5 81.3,6.3 L81.3,5.3 L80.1,5.3 C79.8,5.3 79.6,5.4 79.5,5.5 C79.4,5.6 79.2,6.1 79.2,6.3 Z" id="Shape"></path>
                <path d="M87.1,6.7 L87.4,7.4 C87.2,7.5 86.9,7.6 86.6,7.7 C86.3,7.8 86,7.8 85.8,7.8 C85.3,7.8 84.9,7.7 84.6,7.5 C84.3,7.3 84,7 83.8,6.6 C83.6,6.2 83.5,5.8 83.5,5.3 C83.5,4.8 83.6,4.4 83.8,4 C84,3.6 84.3,3.3 84.6,3.1 C85,2.9 85.4,2.8 85.9,2.8 C86.1,2.8 86.4,2.8 86.7,2.9 C87,3 87.3,3.1 87.5,3.2 L87.2,3.9 C86.9,3.8 86.7,3.7 86.5,3.7 C86.3,3.7 86.1,3.6 85.9,3.6 C85.5,3.6 85.1,3.8 84.9,4.1 C84.6,4.4 84.5,4.8 84.5,5.3 C84.5,5.8 84.6,6.2 84.9,6.5 C85.1,6.8 85.5,7 85.9,7 C86.2,7 86.4,7 86.6,6.9 C86.6,6.9 86.8,6.8 87.1,6.7 Z" id="Shape"></path>
                <polygon id="Shape" points="89.6 6 89.6 7.7 88.7 7.7 88.7 0.9 89.6 0.8 89.6 4.9 91.7 2.8 92.2 3.4 90.8 4.7 92.7 7.6 91.6 7.6 90.2 5.3"></polygon>
                <path d="M94.2,2.1 C94,2.1 93.9,2 93.8,1.9 C93.7,1.8 93.6,1.6 93.6,1.5 C93.6,1.3 93.7,1.2 93.8,1.1 C93.9,1 94,0.9 94.2,0.9 C94.4,0.9 94.5,1 94.6,1.1 C94.7,1.2 94.8,1.4 94.8,1.5 C94.8,1.7 94.7,1.8 94.6,1.9 C94.5,2 94.4,2.1 94.2,2.1 Z M94.7,2.9 L94.7,7.6 L93.8,7.6 L93.8,2.9 L94.7,2.9 Z" id="Shape"></path>
                <path d="M97.2,4.3 L97.2,7.6 L96.3,7.6 L96.3,2.9 L97,2.9 L97.2,3.5 C97.5,3.3 97.7,3.1 98.1,2.9 C98.4,2.8 98.7,2.7 99,2.7 C99.5,2.7 99.9,2.9 100.1,3.2 C100.3,3.5 100.5,3.9 100.5,4.5 L100.5,7.6 L99.6,7.6 L99.6,4.6 C99.6,4.3 99.5,4 99.4,3.8 C99.3,3.6 99.1,3.5 98.8,3.5 C98.6,3.5 98.3,3.6 98.1,3.7 C97.7,3.9 97.5,4.1 97.2,4.3 Z" id="Shape"></path>
                <path d="M106,8.1 C106,8.5 105.9,8.8 105.7,9 C105.5,9.2 105.3,9.5 104.9,9.6 C104.6,9.8 104.2,9.8 103.7,9.8 C103.5,9.8 103.2,9.8 102.8,9.7 C102.4,9.6 102.2,9.5 102,9.4 L102.3,8.7 C102.6,8.8 102.9,8.9 103,9 C103.2,9.1 103.4,9.1 103.6,9.1 C104,9.1 104.3,9 104.6,8.8 C104.8,8.6 105,8.3 105,8 L105,7.4 C104.8,7.5 104.6,7.6 104.5,7.6 C104.3,7.7 104.1,7.7 104,7.7 C103.5,7.7 103.1,7.6 102.7,7.4 C102.3,7.2 102.1,6.9 101.9,6.5 C101.7,6.1 101.6,5.7 101.6,5.2 C101.6,4.7 101.7,4.3 101.9,3.9 C102.1,3.5 102.4,3.2 102.7,3 C103.1,2.8 103.5,2.7 103.9,2.7 C104.1,2.7 104.3,2.7 104.5,2.8 C104.7,2.9 104.9,3 105.1,3.1 L105.3,2.8 L105.8,2.8 L105.8,8.1 L106,8.1 Z M104.6,6.9 C104.8,6.8 104.9,6.7 105.1,6.6 L105.1,4 C105,3.9 104.8,3.8 104.6,3.7 C104.4,3.6 104.2,3.6 104,3.6 C103.6,3.6 103.2,3.8 103,4.1 C102.8,4.4 102.6,4.8 102.6,5.3 C102.6,5.8 102.7,6.2 103,6.6 C103.2,6.9 103.6,7.1 104,7.1 C104.2,7 104.4,7 104.6,6.9 Z" id="Shape"></path>
            </g>
            <path d="M66.7121722,24.301136 L81,17.2 L79.8,25.2 L81.8,17.2 L88.7919623,21.3951774 C87.2891231,26.4297662 82.6231761,30.1 77.1,30.1 C72.7097323,30.1 68.8610926,27.7810149 66.7121722,24.301136 Z M66.6579691,24.2125199 C65.5422543,22.3708823 64.9,20.2104444 64.9,17.9 C64.9,11.1621261 70.3621261,5.7 77.1,5.7 C82.7772658,5.7 87.5488042,9.57788045 88.9103084,14.8293347 L81.9,15.9 L81.7,10.9 L81.1,15.9 L68.2,10.9 L80.6,16.6 L66.6579691,24.2125199 Z M89.0342416,15.3553925 C89.2083825,16.1761338 89.3,17.0273677 89.3,17.9 C89.3,18.9923788 89.1564304,20.0512251 88.887131,21.0586992 L82.1,16.6 L89.0342416,15.3553925 Z" id="Combined-Shape" fill="#FFFFFF"></path>
        </g>
    </g>
</svg>